<svg width="123" height="27" viewBox="0 0 123 27" fill="none" xmlns="http://www.w3.org/2000/svg">
<path d="M16.3213 26.8722V0.209961H33.6921V5.16152H22.1116V11.1034H33.6921V16.0549H22.1116V26.8722H16.3213Z" fill="#101010"/>
<path d="M34.9043 0.209961H40.7166V21.9206H53.891V26.8722H34.9043V0.209961Z" fill="#101010"/>
<path d="M75.977 26.8722L73.7391 19.1401H62.7424L60.5044 26.8722H55.1025L62.8581 0.209961H68.26L64.2086 14.1886H72.3114L68.26 0.209961H74.0478L81.7648 26.8722H75.977Z" fill="#101010"/>
<path d="M116.462 26.8722L114.258 19.1401H103.428L101.224 26.8722H95.9043L103.542 0.209961H108.862L104.872 14.1886H112.852L108.862 0.209961H114.562L122.163 26.8722H116.462Z" fill="#101010"/>
<path d="M88.8637 26.8722L96.5533 0.209961H101.963L94.2735 26.8722H88.8637ZM81.0969 0.209961L88.8637 26.8722H83.0676L75.3008 0.209961H81.0969Z" fill="#101010"/>
<rect x="11.0693" y="0.209961" width="4.03973" height="26.6622" fill="#101010"/>
<rect x="7.0293" y="0.209961" width="2.82781" height="26.6622" fill="#101010"/>
<rect x="3.39355" y="0.209961" width="1.61589" height="26.6622" fill="#101010"/>
<rect x="0.162109" y="0.209961" width="0.807946" height="26.6622" fill="#101010"/>
</svg>
